<?xml version="1.0" encoding="utf-8"?>
<!-- Generator: Adobe Illustrator 27.5.0, SVG Export Plug-In . SVG Version: 6.00 Build 0)  -->
<svg version="1.1" xmlns="http://www.w3.org/2000/svg" xmlns:xlink="http://www.w3.org/1999/xlink" x="0px" y="0px"
	 viewBox="0 0 500 500" style="enable-background:new 0 0 500 500;" xml:space="preserve">
<g id="Background_Complete">
	<g>
		<rect x="416.779" y="398.494" style="fill:#EBEBEB;" width="33.122" height="0.25"/>
		<rect x="322.527" y="401.208" style="fill:#EBEBEB;" width="8.693" height="0.25"/>
		<rect x="396.586" y="389.208" style="fill:#EBEBEB;" width="19.192" height="0.25"/>
		<rect x="52.459" y="390.888" style="fill:#EBEBEB;" width="43.193" height="0.25"/>
		<rect x="104.556" y="390.888" style="fill:#EBEBEB;" width="6.333" height="0.25"/>
		<rect x="131.471" y="395.111" style="fill:#EBEBEB;" width="93.676" height="0.25"/>
		<path style="fill:#EBEBEB;" d="M237.014,337.8H43.915c-3.147,0-5.708-2.561-5.708-5.708V60.66c0-3.147,2.561-5.708,5.708-5.708
			h193.099c3.146,0,5.707,2.561,5.707,5.708v271.432C242.721,335.239,240.16,337.8,237.014,337.8z M43.915,55.203
			c-3.01,0-5.458,2.448-5.458,5.458v271.432c0,3.01,2.448,5.458,5.458,5.458h193.099c3.009,0,5.457-2.448,5.457-5.458V60.66
			c0-3.009-2.448-5.458-5.457-5.458H43.915z"/>
		<path style="fill:#EBEBEB;" d="M453.31,337.8H260.212c-3.147,0-5.707-2.561-5.707-5.708V60.66c0-3.147,2.561-5.708,5.707-5.708
			H453.31c3.148,0,5.708,2.561,5.708,5.708v271.432C459.019,335.239,456.458,337.8,453.31,337.8z M260.212,55.203
			c-3.009,0-5.457,2.448-5.457,5.458v271.432c0,3.01,2.448,5.458,5.457,5.458H453.31c3.01,0,5.458-2.448,5.458-5.458V60.66
			c0-3.009-2.448-5.458-5.458-5.458H260.212z"/>
		<rect y="382.398" style="fill:#EBEBEB;" width="500" height="0.25"/>
	</g>
	<g>
		<polygon style="fill:#E0E0E0;" points="312.144,382.145 86.488,382.145 84.63,375.763 314.002,375.763 		"/>
		<g>
			<g>
				<rect x="74.291" y="289.078" style="fill:#EBEBEB;" width="122.88" height="42.416"/>
				<rect x="74.291" y="331.494" style="fill:#EBEBEB;" width="122.88" height="42.416"/>
				
					<rect x="133.585" y="232.016" transform="matrix(-1.836970e-16 1 -1 -1.836970e-16 429.1862 157.7253)" style="fill:#E0E0E0;" width="4.292" height="122.88"/>
				
					<rect x="133.585" y="274.101" transform="matrix(-1.836970e-16 1 -1 -1.836970e-16 471.2708 199.8099)" style="fill:#E0E0E0;" width="4.291" height="122.88"/>
				<path style="fill:#F5F5F5;" d="M72.145,287.177v88.586h2.146h2.146h118.588h2.146h2.145v-88.586H72.145z M195.025,371.472
					H76.437v-37.735h118.588V371.472z M195.025,329.445H76.437V291.71h118.588V329.445z"/>
				<g>
					<rect x="201.461" y="289.078" style="fill:#EBEBEB;" width="122.88" height="42.416"/>
					<rect x="201.461" y="331.494" style="fill:#EBEBEB;" width="122.88" height="42.416"/>
					
						<rect x="260.755" y="232.016" transform="matrix(-1.836970e-16 1 -1 -1.836970e-16 556.3569 30.5546)" style="fill:#E0E0E0;" width="4.292" height="122.88"/>
					
						<rect x="260.755" y="274.101" transform="matrix(-1.836970e-16 1 -1 -1.836970e-16 598.4415 72.6393)" style="fill:#E0E0E0;" width="4.291" height="122.88"/>
					<path style="fill:#F5F5F5;" d="M199.316,287.177v88.586h2.146h2.146h118.588h2.146h2.146v-88.586H199.316z M322.195,371.472
						H203.607v-37.735h118.588V371.472z M322.195,329.445H203.607V291.71h118.588V329.445z"/>
				</g>
			</g>
			<g>
				<path style="fill:#E0E0E0;" d="M266.59,314.263c0,2.037-1.652,3.689-3.689,3.689c-2.037,0-3.689-1.652-3.689-3.689
					c0-2.037,1.652-3.689,3.689-3.689C264.939,310.574,266.59,312.226,266.59,314.263z"/>
				<path style="fill:#FAFAFA;" d="M266.59,313.223c0,2.037-1.652,3.689-3.689,3.689c-2.037,0-3.689-1.652-3.689-3.689
					c0-2.038,1.652-3.689,3.689-3.689C264.939,309.534,266.59,311.185,266.59,313.223z"/>
			</g>
			<g>
				<path style="fill:#E0E0E0;" d="M266.59,353.222c0,2.038-1.652,3.689-3.689,3.689c-2.037,0-3.689-1.652-3.689-3.689
					c0-2.037,1.652-3.689,3.689-3.689C264.939,349.533,266.59,351.185,266.59,353.222z"/>
				<path style="fill:#FAFAFA;" d="M266.59,352.181c0,2.038-1.652,3.689-3.689,3.689c-2.037,0-3.689-1.652-3.689-3.689
					c0-2.037,1.652-3.689,3.689-3.689C264.939,348.492,266.59,350.144,266.59,352.181z"/>
			</g>
			<g>
				<path style="fill:#E0E0E0;" d="M139.419,314.263c0,2.037-1.652,3.689-3.689,3.689c-2.037,0-3.689-1.652-3.689-3.689
					c0-2.037,1.652-3.689,3.689-3.689C137.768,310.574,139.419,312.226,139.419,314.263z"/>
				<path style="fill:#FAFAFA;" d="M139.419,313.223c0,2.037-1.652,3.689-3.689,3.689c-2.037,0-3.689-1.652-3.689-3.689
					c0-2.038,1.652-3.689,3.689-3.689C137.768,309.534,139.419,311.185,139.419,313.223z"/>
			</g>
			<g>
				<path style="fill:#E0E0E0;" d="M139.419,353.222c0,2.038-1.652,3.689-3.689,3.689c-2.037,0-3.689-1.652-3.689-3.689
					c0-2.037,1.652-3.689,3.689-3.689C137.768,349.533,139.419,351.185,139.419,353.222z"/>
				<path style="fill:#FAFAFA;" d="M139.419,352.181c0,2.038-1.652,3.689-3.689,3.689c-2.037,0-3.689-1.652-3.689-3.689
					c0-2.037,1.652-3.689,3.689-3.689C137.768,348.492,139.419,350.144,139.419,352.181z"/>
			</g>
		</g>
	</g>
	<g>
		<g>
			<path style="fill:#E0E0E0;" d="M371.504,273.085c2.217-2.471,5.413-5.163,8.776-5.699c10.313-1.642,9.161,19.512,9.061,24.924
				c-0.018,0.966,1.482,0.966,1.5,0c0.117-6.381,1.251-26.393-9.438-26.523c-4.177-0.051-8.302,3.274-10.959,6.237
				C369.801,272.741,370.858,273.805,371.504,273.085L371.504,273.085z"/>
		</g>
		<g>
			<path style="fill:#E0E0E0;" d="M403.579,260.079c-2.128,0.336-3.804,2.815-4.788,4.476c-4.741,8-5.056,18.774-5.359,27.755
				c-0.033,0.966,1.467,0.964,1.5,0c0.29-8.612,0.562-18.722,4.867-26.488c0.822-1.482,2.255-3.994,4.178-4.297
				C404.928,261.375,404.525,259.93,403.579,260.079L403.579,260.079z"/>
		</g>
		<path style="fill:#EBEBEB;" d="M370.974,272.554c0,0-9.289-15.354-16.106-1.514c-1.109,2.252-1.779,4.598-2.133,6.949
			c2.852-1.252,8.932-3.552,9.017-0.43c0.068,2.514-3.485,6.656-6.224,9.466c-1.55,1.591-2.126,3.893-1.528,6.032
			c1.527,5.455,3.606,9.251,3.606,9.251s2.043-0.775,5.043-2.204c1.895-0.903,3.241-2.664,3.63-4.727
			c0.424-2.254,1.15-4.643,2.364-5.351c1.222-0.713,2.189,0.616,2.855,2.147c0.549,1.261,2.101,1.704,3.215,0.898
			c1.491-1.078,2.944-2.238,4.293-3.473c0.81-0.741,0.923-1.989,0.247-2.853c-1.478-1.89-2.853-4.141-2.289-5.44
			c0.541-1.246,3.064-1.268,5.494-0.968c2.014,0.249,3.844-1.19,4.081-3.206l0.005-0.039
			C388.274,262.174,370.974,272.554,370.974,272.554z"/>
		<path style="fill:#E6E6E6;" d="M407.105,256.783c0,0,9.289-15.354,16.106-1.514c1.109,2.252,1.779,4.598,2.133,6.949
			c-2.852-1.252-8.932-3.553-9.017-0.43c-0.068,2.514,3.485,6.656,6.224,9.466c1.55,1.591,2.126,3.893,1.527,6.032
			c-1.527,5.455-3.606,9.251-3.606,9.251s-2.043-0.775-5.043-2.203c-1.895-0.903-3.241-2.664-3.63-4.727
			c-0.424-2.254-1.15-4.643-2.364-5.351c-1.222-0.713-2.189,0.616-2.855,2.147c-0.548,1.261-2.101,1.704-3.215,0.898
			c-1.491-1.079-2.944-2.238-4.294-3.473c-0.81-0.741-0.923-1.989-0.247-2.853c1.478-1.89,2.854-4.141,2.289-5.44
			c-0.542-1.246-3.064-1.268-5.494-0.968c-2.014,0.249-3.844-1.19-4.081-3.206l-0.005-0.039
			C389.806,246.403,407.105,256.783,407.105,256.783z"/>
		<g>
			<path style="fill:#E6E6E6;" d="M354.164,365.023c0,6.76,1.061,11.133,2.847,13.938c1.344,2.111,3.756,3.297,6.259,3.297h9.788
				c2.502,0,4.914-1.187,6.259-3.297c1.787-2.806,2.848-7.178,2.848-13.938c0-9.805-4.275-17.655-5.671-23.923
				c-0.503-2.257,1.171-9.174,1.171-9.174h-19c0,0,1.674,6.918,1.171,9.174C358.438,347.368,354.164,355.218,354.164,365.023z"/>
			<path style="fill:#F0F0F0;" d="M368.164,325.34c0-8.513,13.346-4.979,16.71-18.186c1.275-5.005-9.58-16.332-9.58-16.332h33.845
				c0,0-10.855,11.327-9.58,16.332c3.364,13.207,16.71,9.673,16.71,18.186c0,9.376-18.827,28.903-19.734,50.882
				c-0.081,1.965,3.541,6.037,3.541,6.037h-15.718c0,0,3.622-4.072,3.541-6.037C386.99,354.243,368.164,334.716,368.164,325.34z"/>
			<path style="fill:#E6E6E6;" d="M419.793,347.464c-1.967-4.138,2.1-18.205,2.1-18.205h-14.667c0,0,4.068,14.068,2.101,18.205
				c-1.389,2.921-4.548,4.786-4.548,8.242v20.772c0,5.379,4.401,5.781,9.781,5.781c5.379,0,9.781-0.401,9.781-5.781v-20.772
				C424.341,352.25,421.181,350.385,419.793,347.464z"/>
		</g>
		<path style="fill:#E0E0E0;" d="M399.045,286.665c0,0,9.636-7.268,11.352,2.882c0.279,1.651,0.237,3.257-0.022,4.791
			c-1.686-1.448-5.359-4.307-6.083-2.401c-0.583,1.534,0.967,4.93,2.242,7.312c0.722,1.348,0.625,2.904-0.241,4.081
			c-2.209,3.002-4.443,4.85-4.443,4.85s-1.234-0.962-2.983-2.553c-1.105-1.006-1.651-2.41-1.477-3.775
			c0.19-1.491,0.203-3.136-0.477-3.86c-0.685-0.729-1.63-0.138-2.413,0.648c-0.645,0.648-1.802,0.553-2.393-0.208
			c-0.791-1.018-1.538-2.078-2.199-3.159c-0.397-0.648-0.208-1.445,0.44-1.818c1.415-0.815,2.837-1.878,2.728-2.812
			c-0.105-0.896-1.828-1.508-3.555-1.899c-1.432-0.324-2.379-1.645-2.111-2.944l0.005-0.025
			C389.413,276.166,399.045,286.665,399.045,286.665z"/>
	</g>
</g>
<g id="Background_Simple" style="display:none;">
	<g style="display:inline;">
		<path style="fill:#407BFF;" d="M408.093,237.282L235.233,91.644c-26.24-22.108-65.704-17.436-86.056,10.189l-61.275,83.172
			c-22.39,30.391-11.106,73.687,23.269,89.284l212.66,96.488c43.432,19.706,94.33-2.9,108.83-48.335v0
			C442.472,291.699,432.772,258.075,408.093,237.282z"/>
		<path style="opacity:0.9;fill:#FFFFFF;" d="M408.093,237.282L235.233,91.644c-26.24-22.108-65.704-17.436-86.056,10.189
			l-61.275,83.172c-22.39,30.391-11.106,73.687,23.269,89.284l212.66,96.488c43.432,19.706,94.33-2.9,108.83-48.335v0
			C442.472,291.699,432.772,258.075,408.093,237.282z"/>
	</g>
</g>
<g id="Shadow">
	<ellipse id="_x3C_Path_x3E__1_" style="fill:#F5F5F5;" cx="245.178" cy="412.391" rx="193.889" ry="11.323"/>
</g>
<g id="Character_3">
	<g>
		<g>
			
				<rect x="376.691" y="156.733" transform="matrix(-1 -1.224647e-16 1.224647e-16 -1 757.7833 326.2826)" style="fill:#263238;" width="4.401" height="12.816"/>
			<path style="fill:#263238;" d="M364.523,149.447c0.551-3.867,3.518-6.186,7.079-6.25c0.442-0.008,3.406,0.014,3.948,0.001
				c0.458-0.011,0.927,0.015,1.401,0.081c1.443,0.198,2.659,0.327,3.808,0.401c1.167-0.074,2.415-0.202,3.907-0.401
				c0.535-0.071,4.772-0.08,5.142-0.083c3.669-0.033,6.179,2.301,5.772,6.251c-0.008,0.081-0.012,0.121-0.021,0.201
				c-0.448,4.348-4.342,9.033-8.719,9.616c-3.306,0.44-5.503,0.573-8.045,0.413c-2.582,0.16-4.746,0.027-7.944-0.413
				c-4.234-0.583-6.977-5.269-6.357-9.616C364.505,149.568,364.511,149.528,364.523,149.447z"/>
			<path style="fill:#263238;" d="M394.646,162.549c-0.574,0.022-3.281-0.046-4.131-0.001c-0.674,0.035-1.394,0.152-2.149,0.354
				c-3.97,1.059-7.173,1.678-10.197,1.871c-2.976-0.193-6.027-0.812-9.736-1.871c-0.935-0.267-1.844-0.386-2.701-0.363
				c-0.606,0.016-3.178-0.001-3.86,0.004c-3.203,0.021-5.727,1.989-6.282,5.651c-2.019,13.33-4.037,26.661-6.056,39.991h37.369
				c3.517,0,6.785-1.058,9.512-2.865c1.165-12.375,2.33-24.75,3.495-37.125C400.267,164.393,398.055,162.417,394.646,162.549z"/>
			<path style="opacity:0.2;fill:#FFFFFF;" d="M370.851,159.265c4.694,0.646,7.137,0.646,11.99,0
				c4.377-0.583,8.271-5.268,8.719-9.616c0.008-0.081,0.012-0.121,0.021-0.201c0.448-4.348-2.638-6.738-6.915-6.168
				c-4.741,0.631-7.128,0.631-11.714,0c-4.136-0.569-7.809,1.82-8.429,6.168c-0.012,0.08-0.017,0.121-0.029,0.201
				C363.874,153.996,366.617,158.682,370.851,159.265z"/>
			<path style="opacity:0.2;fill:#FFFFFF;" d="M388.366,162.902c-9.712,2.591-14.856,2.592-23.932,0
				c-4.352-1.243-8.149,0.695-8.845,5.292c-2.019,13.33-4.037,26.661-6.056,39.991h37.369c1.859,0,3.646-0.302,5.324-0.846
				c1.228-13.048,2.457-26.096,3.685-39.144C396.344,163.597,393.022,161.66,388.366,162.902z"/>
		</g>
		<g>
			<polygon style="fill:#FFC3BD;" points="328.391,188.412 321.502,189.072 310.949,186.586 307.123,192.902 309.578,194.156 
				313.021,193.1 317.774,194.037 322.05,193.373 330.175,193.57 			"/>
			<path style="fill:#407BFF;" d="M325.604,188.148l1.636,5.889c0,0,11.884,1.615,16.549-0.429
				c4.666-2.044,1.143-36.515-3.346-36.135c-4.489,0.38-2.021,19.45-2.021,25.439C338.422,187.489,325.604,188.148,325.604,188.148z
				"/>
			<path style="opacity:0.7;fill:#FFFFFF;" d="M325.604,188.148l1.636,5.889c0,0,11.884,1.615,16.549-0.429
				c4.666-2.044,1.143-36.515-3.346-36.135c-4.489,0.38-2.021,19.45-2.021,25.439C338.422,187.489,325.604,188.148,325.604,188.148z
				"/>
			<path style="fill:#407BFF;" d="M339.554,157.517c-4.5,6.437,5.845,16.54,6.058,50.668h33.388
				c0.972-9.218,4.424-45.343-0.389-52.16C373.085,148.197,343.842,151.383,339.554,157.517z"/>
			<g>
				<path style="fill:#407BFF;" d="M350.353,151.416c0,0-7.981,3.021-0.759,10.085l3.855-1.584l5.545,1.584
					C358.994,161.501,373.07,145.952,350.353,151.416z"/>
				<path style="opacity:0.7;fill:#FFFFFF;" d="M350.353,151.416c0,0-7.981,3.021-0.759,10.085l3.855-1.584l5.545,1.584
					C358.994,161.501,373.07,145.952,350.353,151.416z"/>
			</g>
			<path style="fill:#FFC3BD;" d="M351.463,158.649c-1.962-1.606-4.248-4.071-2.31-5.684c3.639-0.888,7.914-1.444,12.112-1.549
				c1.124,0.741,0.494,2.681-5.535,7.294C354.463,159.679,352.696,159.659,351.463,158.649z"/>
			<path style="fill:#FFC3BD;" d="M349.414,148.464l6.699-7.277c0.637,5.581,3.61,10.156,4.207,10.342l-0.733,2.555
				c-8.118,9.128-9.993,0.365-9.993,0.365C351.57,152.793,349.414,148.464,349.414,148.464z"/>
			<path style="opacity:0.2;fill:#263238;" d="M353.429,144.102l3.123-0.312c0,0-0.137,9.36-6.541,10.162
				c1.188-1.889-0.598-5.489-0.598-5.489L353.429,144.102z"/>
			<path style="fill:#FFC3BD;" d="M355.2,133.184c1.449,6.615,2.638,10.4,0.346,14.773c-2.206,4.329-7.504,6.051-11.833,3.845
				c-1.593-0.812-2.901-2.09-3.75-3.663c-3.044-5.379-4.908-15.293,0.637-19.898c3.694-3.243,9.318-2.878,12.561,0.817
				C354.191,130.23,354.894,131.653,355.2,133.184z"/>
			<path style="fill:#263238;" d="M345.986,138.145c0.155,0.525-0.007,1.039-0.358,1.121c-0.35,0.082-0.736-0.228-0.892-0.753
				c-0.155-0.525,0.004-1.047,0.366-1.125C345.464,137.311,345.838,137.617,345.986,138.145z"/>
			<path style="fill:#263238;" d="M340.083,140.051c0.155,0.525,0,1.036-0.358,1.121c-0.358,0.086-0.736-0.228-0.895-0.76
				c-0.159-0.532,0.007-1.039,0.366-1.125C339.554,139.202,339.931,139.516,340.083,140.051z"/>
			<path style="fill:#263238;" d="M347.262,135.625c0.051-0.01,0.099-0.033,0.139-0.066c0.108-0.138,0.084-0.337-0.054-0.446
				c-0.004-0.003-0.007-0.006-0.011-0.008c-0.816-0.644-1.9-0.839-2.89-0.52c-0.164,0.062-0.246,0.245-0.184,0.409
				c0.001,0.003,0.002,0.006,0.004,0.009c0.062,0.164,0.245,0.246,0.409,0.184c0.003-0.001,0.006-0.003,0.009-0.004
				c0.771-0.241,1.61-0.093,2.252,0.397C347.027,135.659,347.155,135.676,347.262,135.625z"/>
			<path style="fill:#263238;" d="M336.964,138.814c0.097-0.043,0.166-0.133,0.181-0.238c0.116-0.829,0.611-1.558,1.34-1.97
				c0.148-0.103,0.184-0.306,0.081-0.454c-0.08-0.115-0.224-0.166-0.358-0.127l0,0c-0.915,0.502-1.54,1.406-1.686,2.439
				c-0.031,0.173,0.084,0.337,0.256,0.368c0.002,0,0.004,0.001,0.005,0.001C336.844,138.847,336.908,138.84,336.964,138.814z"/>
			<path style="fill:#263238;" d="M346.452,146.478c-0.294,0.086-0.595,0.147-0.899,0.181c-0.098,0.017-0.19-0.049-0.207-0.147
				c0-0.002-0.001-0.004-0.001-0.006c-0.006-0.101,0.068-0.189,0.168-0.201c1.557-0.166,2.942-1.061,3.734-2.412
				c0.044-0.091,0.153-0.128,0.244-0.085c0.091,0.044,0.129,0.153,0.085,0.244C348.905,145.249,347.778,146.124,346.452,146.478z"/>
			<path style="fill:#ED893E;" d="M342.137,139.707c-0.164,1.82-0.568,3.61-1.201,5.325c1.167,0.574,2.637-0.309,2.637-0.309
				L342.137,139.707z"/>
			<path style="fill:#263238;" d="M351.6,123.277c-21.323-4.093-15.083,13.269-15.083,13.269s0.164-2.971,2.94-2.971
				c2.776,0,5.221-2.179,5.221-2.179c-1.642,1.98-3.741,2.575-3.741,2.575c4.854,0.079,7.856-2.796,9.488-5.11
				c0,0,0.186,0.952,0.186,1.479c0,2.443,1.98,3.763,2.971,7.085c0.99,3.322,4.951,0,4.951,0
				C364.077,123.188,351.6,123.277,351.6,123.277z"/>
			<path style="fill:#FFC3BD;" d="M359.2,137.878c-0.028,1.513-0.627,2.96-1.677,4.051c-1.387,1.413-2.979,0.349-3.336-1.514
				c-0.322-1.69,0.015-4.445,1.769-5.15C357.71,134.56,359.218,136.007,359.2,137.878z"/>
			<path style="fill:#263238;" d="M351.957,124.243c0,0-4.504-5.506-7.632-4.041C341.197,121.667,350.041,122.024,351.957,124.243z"
				/>
			<polygon style="fill:#FFC3BD;" points="351.612,189.558 344.723,190.218 334.17,186.675 329.288,191.934 331.742,193.189 
				336.242,193.189 340.995,195.183 345.271,194.519 353.396,194.716 			"/>
			<path style="fill:#407BFF;" d="M376.925,155.464c-2.216-1.512-4.588-0.046-6.986,13.76c-2.845,16.381-4.743,17.12-21.114,20.069
				l1.779,5.889c0,0,13.975,1.725,20.741-2.676C378.11,188.105,382.899,159.542,376.925,155.464z"/>
			<path style="opacity:0.7;fill:#FFFFFF;" d="M376.925,155.464c-2.216-1.512-4.588-0.046-6.986,13.76
				c-2.845,16.381-4.743,17.12-21.114,20.069l1.779,5.889c0,0,13.975,1.725,20.741-2.676
				C378.11,188.105,382.899,159.542,376.925,155.464z"/>
		</g>
		<g>
			<path style="fill:#263238;" d="M356.99,196.828h-91.375c0.592,1.624,1.416,3.131,2.44,4.485h88.935
				c1.238,0,2.242-1.004,2.242-2.242C359.233,197.832,358.229,196.828,356.99,196.828z"/>
			<path style="opacity:0.6;fill:#FFFFFF;" d="M356.99,196.828h-91.375c0.592,1.624,1.416,3.131,2.44,4.485h88.935
				c1.238,0,2.242-1.004,2.242-2.242C359.233,197.832,358.229,196.828,356.99,196.828z"/>
			<path style="fill:#263238;" d="M281.811,208.185h73.09v-6.872h-86.846C271.204,205.48,276.186,208.185,281.811,208.185z"/>
			<path style="opacity:0.4;fill:#FFFFFF;" d="M281.811,208.185h73.09v-6.872h-86.846
				C271.204,205.48,276.186,208.185,281.811,208.185z"/>
		</g>
		<g>
			<path style="fill:#263238;" d="M342.911,193.919H289.66c-0.803,0-1.454,0.651-1.454,1.455c0,0.803,0.651,1.455,1.454,1.455
				h53.251c0.803,0,1.455-0.651,1.455-1.455C344.366,194.57,343.715,193.919,342.911,193.919z"/>
			<path style="opacity:0.3;fill:#FFFFFF;" d="M342.911,193.919H289.66c-0.803,0-1.454,0.651-1.454,1.455
				c0,0.803,0.651,1.455,1.454,1.455h53.251c0.803,0,1.455-0.651,1.455-1.455C344.366,194.57,343.715,193.919,342.911,193.919z"/>
			<g>
				<path style="fill:#263238;" d="M290.451,195.939h18.202c0.474,0,0.807-0.468,0.65-0.916l-9.982-28.516
					c-0.275-0.786-1.016-1.311-1.849-1.311H279.27c-0.474,0-0.807,0.468-0.65,0.916l9.982,28.516
					C288.877,195.413,289.619,195.939,290.451,195.939z"/>
				<path style="opacity:0.5;fill:#FFFFFF;" d="M290.451,195.939h18.202c0.474,0,0.807-0.468,0.65-0.916l-9.982-28.516
					c-0.275-0.786-1.016-1.311-1.849-1.311H279.27c-0.474,0-0.807,0.468-0.65,0.916l9.982,28.516
					C288.877,195.413,289.619,195.939,290.451,195.939z"/>
			</g>
			<g>
				<path style="fill:#263238;" d="M289.573,195.939h18.202c0.475,0,0.807-0.468,0.65-0.916l-9.982-28.516
					c-0.275-0.786-1.017-1.311-1.849-1.311h-18.202c-0.474,0-0.807,0.468-0.65,0.916l9.982,28.516
					C287.999,195.413,288.74,195.939,289.573,195.939z"/>
				<path style="opacity:0.7;fill:#FFFFFF;" d="M289.573,195.939h18.202c0.475,0,0.807-0.468,0.65-0.916l-9.982-28.516
					c-0.275-0.786-1.017-1.311-1.849-1.311h-18.202c-0.474,0-0.807,0.468-0.65,0.916l9.982,28.516
					C287.999,195.413,288.74,195.939,289.573,195.939z"/>
			</g>
			<path style="fill:#FFFFFF;" d="M291.607,180.567c0.232,1.093,0.988,1.978,1.688,1.978c0.7,0,1.079-0.886,0.847-1.978
				c-0.232-1.093-0.988-1.979-1.688-1.979C291.754,178.589,291.375,179.474,291.607,180.567z"/>
			<path style="opacity:0.2;fill:#FFFFFF;" d="M310.992,196.828c-0.803,0-1.455-0.651-1.455-1.455c0-0.803,0.651-1.455,1.455-1.455
				h31.919c0.803,0,1.455,0.651,1.455,1.455c0,0.803-0.651,1.455-1.455,1.455H310.992z"/>
		</g>
		<g>
			<g>
				<rect x="275.004" y="148.871" style="fill:#407BFF;" width="3.651" height="7.952"/>
				<rect x="318.723" y="148.871" style="fill:#407BFF;" width="3.651" height="7.952"/>
			</g>
			<g>
				<g>
					<g>
						<g>
							<path style="fill:#407BFF;" d="M300.448,133.499l-0.428-0.028c0.861-12.769-1.038-16.917-2.784-18.148
								c-1.025-0.724-1.931-0.344-1.94-0.34l-0.171-0.394c0.046-0.019,1.137-0.478,2.358,0.383
								C299.319,116.268,301.323,120.533,300.448,133.499z"/>
						</g>
						<g>
							<path style="fill:#407BFF;" d="M298.022,132.208c-0.421-10.862,1.461-14.914,3.115-16.401
								c1.032-0.928,1.926-0.808,1.964-0.804l-0.06,0.424c-0.03-0.005-0.758-0.087-1.641,0.72c-1.574,1.439-3.363,5.39-2.95,16.044
								L298.022,132.208z"/>
						</g>
						<g>
							<path style="fill:#407BFF;" d="M299.853,132.214l-0.428-0.029c0.442-6.525-0.363-10.408-2.329-11.229
								c-2.565-1.071-6.398,3.219-6.436,3.262l-0.322-0.284c0.165-0.187,4.074-4.563,6.922-3.374
								C299.443,121.471,300.315,125.392,299.853,132.214z"/>
						</g>
						<g>
							<path style="fill:#407BFF;" d="M298.772,132.628c-0.004-4.011,0.829-6.485,2.477-7.353c1.855-0.976,3.997,0.468,4.087,0.53
								l-0.243,0.353c-0.02-0.014-2.022-1.362-3.646-0.503c-1.494,0.788-2.25,3.134-2.246,6.971L298.772,132.628z"/>
						</g>
					</g>
					<g style="opacity:0.2;">
						<g>
							<path d="M300.448,133.499l-0.428-0.028c0.861-12.769-1.038-16.917-2.784-18.148c-1.025-0.724-1.931-0.344-1.94-0.34
								l-0.171-0.394c0.046-0.019,1.137-0.478,2.358,0.383C299.319,116.268,301.323,120.533,300.448,133.499z"/>
						</g>
						<g>
							<path d="M298.022,132.208c-0.421-10.862,1.461-14.914,3.115-16.401c1.032-0.928,1.926-0.808,1.964-0.804l-0.06,0.424
								c-0.03-0.005-0.758-0.087-1.641,0.72c-1.574,1.439-3.363,5.39-2.95,16.044L298.022,132.208z"/>
						</g>
						<g>
							<path d="M299.853,132.214l-0.428-0.029c0.442-6.525-0.363-10.408-2.329-11.229c-2.565-1.071-6.398,3.219-6.436,3.262
								l-0.322-0.284c0.165-0.187,4.074-4.563,6.922-3.374C299.443,121.471,300.315,125.392,299.853,132.214z"/>
						</g>
						<g>
							<path d="M298.772,132.628c-0.004-4.011,0.829-6.485,2.477-7.353c1.855-0.976,3.997,0.468,4.087,0.53l-0.243,0.353
								c-0.02-0.014-2.022-1.362-3.646-0.503c-1.494,0.788-2.25,3.134-2.246,6.971L298.772,132.628z"/>
						</g>
					</g>
				</g>
				<path style="fill:#263238;" d="M289.08,131.478l1.843,10.469c0.422,2.398,2.505,4.146,4.939,4.146h7.321
					c2.435,0,4.518-1.748,4.94-4.146l1.843-10.469H289.08z"/>
				<path style="opacity:0.3;fill:#FFFFFF;" d="M289.08,131.478l1.843,10.469c0.422,2.398,2.505,4.146,4.939,4.146h7.321
					c2.435,0,4.518-1.748,4.94-4.146l1.843-10.469H289.08z"/>
				<g>
					<path style="fill:#407BFF;" d="M296.064,114.702c0,0,4.345-7.3-3.301-7.407c-1.134-0.016-2.219,0.162-3.258,0.449
						c0.983,0.677,2.6,1.914,1.777,2.227c-0.86,0.328-3.962-0.297-5.461-0.63c-3.932,2.335-6.473,5.832-6.473,5.832
						s2.047,1.965,4.938,3.943c0.763-0.757,1.916-1.711,2.571-1.332c0.656,0.38,1.369,2.414,1.806,3.862
						c1.488,0.69,3.032,1.212,4.534,1.405c-0.041-1.166-0.017-3.056,0.543-3.355c0.577-0.308,2.586,1.63,3.727,2.805
						C303.306,119.977,296.064,114.702,296.064,114.702z"/>
					<path style="opacity:0.1;fill:#FFFFFF;" d="M296.064,114.702c0,0,4.345-7.3-3.301-7.407c-1.134-0.016-2.219,0.162-3.258,0.449
						c0.983,0.677,2.6,1.914,1.777,2.227c-0.86,0.328-3.962-0.297-5.461-0.63c-3.932,2.335-6.473,5.832-6.473,5.832
						s2.047,1.965,4.938,3.943c0.763-0.757,1.916-1.711,2.571-1.332c0.656,0.38,1.369,2.414,1.806,3.862
						c1.488,0.69,3.032,1.212,4.534,1.405c-0.041-1.166-0.017-3.056,0.543-3.355c0.577-0.308,2.586,1.63,3.727,2.805
						C303.306,119.977,296.064,114.702,296.064,114.702z"/>
					<path style="opacity:0.3;fill:#FFFFFF;" d="M296.064,114.702c0,0,4.345-7.3-3.301-7.407c-1.134-0.016-2.219,0.162-3.258,0.449
						c0.983,0.677,2.6,1.914,1.777,2.227c-0.86,0.328-3.962-0.297-5.461-0.63c-3.932,2.335-6.473,5.832-6.473,5.832
						C287.685,111.634,296.064,114.702,296.064,114.702z"/>
				</g>
				<g>
					<path style="fill:#407BFF;" d="M305.106,119.642c0.809-0.231,1.806,1.374,2.325,2.342c1.646-0.682,3.219-1.787,4.593-2.973
						c-0.371-0.817-0.792-1.942-0.526-2.374c0.276-0.448,1.725-0.092,2.758,0.232c1.62-1.714,2.638-3.141,2.638-3.141
						s-0.965-0.813-2.517-1.743c-1.499,0.17-3.619,0.305-4.135-0.212c-0.551-0.551,0.628-0.954,1.459-1.158
						c-1.323-0.566-2.815-1.034-4.382-1.223c-0.199,0.68-0.636,1.726-1.448,1.726c-0.757,0-1.657-0.908-2.221-1.582
						c-6.264,1.35-1.291,5.834-1.291,5.834s-5.393,6.398,1.015,7.255C303.714,121.524,304.345,119.859,305.106,119.642z"/>
					<path style="opacity:0.2;fill:#FFFFFF;" d="M305.106,119.642c0.809-0.231,1.806,1.374,2.325,2.342
						c1.646-0.682,3.219-1.787,4.593-2.973c-0.371-0.817-0.792-1.942-0.526-2.374c0.276-0.448,1.725-0.092,2.758,0.232
						c1.62-1.714,2.638-3.141,2.638-3.141s-0.965-0.813-2.517-1.743c-1.499,0.17-3.619,0.305-4.135-0.212
						c-0.551-0.551,0.628-0.954,1.459-1.158c-1.323-0.566-2.815-1.034-4.382-1.223c-0.199,0.68-0.636,1.726-1.448,1.726
						c-0.757,0-1.657-0.908-2.221-1.582c-6.264,1.35-1.291,5.834-1.291,5.834s-5.393,6.398,1.015,7.255
						C303.714,121.524,304.345,119.859,305.106,119.642z"/>
					<path style="opacity:0.3;fill:#FFFFFF;" d="M310.241,111.774c-0.551-0.551,0.628-0.954,1.459-1.158
						c-1.323-0.566-2.815-1.034-4.382-1.223c-0.199,0.68-0.636,1.726-1.448,1.726c-0.757,0-1.657-0.908-2.221-1.582
						c-6.264,1.35-1.291,5.834-1.291,5.834s8.128-2.965,14.534-1.641c0,0-0.965-0.813-2.517-1.743
						C312.878,112.156,310.758,112.291,310.241,111.774z"/>
				</g>
				<path style="fill:#407BFF;" d="M314.272,125.259c-0.875,0.472-2.54,1.228-3.212,0.556c-0.728-0.728,0.354-3.496,0.857-4.662
					c-0.815-0.987-1.765-1.786-2.875-2.279c-6.804-3.021-4.493,6.755-4.493,6.755s-8.59,2.07-3.048,7.338
					c0.405,0.385,0.835,0.728,1.279,1.039c0.43-1.024,1.268-2.683,2.107-2.455c0.824,0.225,0.518,2.401,0.244,3.747
					c1.488,0.627,3.045,0.981,4.52,1.165c0.199-0.955,0.578-2.215,1.191-2.18c0.646,0.036,1.501,1.411,2.014,2.353
					c2.257-0.03,3.844-0.35,3.844-0.35S316.343,130.317,314.272,125.259z"/>
				<path style="opacity:0.2;fill:#FFFFFF;" d="M304.55,125.629c0,0-8.59,2.07-3.048,7.338c0.405,0.385,0.835,0.728,1.279,1.039
					c0.43-1.024,1.268-2.683,2.107-2.455c0.824,0.225,0.518,2.401,0.244,3.747c1.488,0.627,3.045,0.981,4.52,1.165
					c0.199-0.955,0.578-2.215,1.191-2.18c0.646,0.036,1.501,1.411,2.014,2.353c2.257-0.03,3.844-0.35,3.844-0.35
					C312.833,127.856,304.55,125.629,304.55,125.629z"/>
				<g>
					<path style="fill:#407BFF;" d="M291.21,123.553c0,0-4.604-7.61-7.982-0.75c-0.55,1.116-0.882,2.279-1.057,3.444
						c1.413-0.621,4.427-1.761,4.469-0.213c0.046,1.686-3.194,4.849-4.275,5.856c0.705,3.644,2.22,6.41,2.22,6.41
						s1.777-0.674,4.079-1.882c0.123-1.227,0.479-3.673,1.391-4.204c0.96-0.56,1.601,1.42,1.837,2.315
						c1.421-0.93,2.833-2.012,4.02-3.221c-0.882-1.006-2.089-2.595-1.732-3.416c0.391-0.9,2.872-0.511,4.251-0.218
						c0.247-0.605,0.422-1.229,0.497-1.87C299.784,118.409,291.21,123.553,291.21,123.553z"/>
					<path style="opacity:0.2;fill:#FFFFFF;" d="M284.585,138.3c0,0,1.777-0.674,4.079-1.882c0.123-1.227,0.479-3.673,1.391-4.204
						c0.96-0.56,1.601,1.42,1.837,2.315c1.421-0.93,2.833-2.012,4.02-3.221c-0.882-1.006-2.089-2.595-1.732-3.416
						c0.391-0.9,2.872-0.511,4.251-0.218c0.247-0.605,0.422-1.229,0.497-1.87c0.857-7.395-7.717-2.251-7.717-2.251
						S286.136,128.276,284.585,138.3z"/>
				</g>
			</g>
			<g>
				<rect x="270.499" y="145.226" style="fill:#407BFF;" width="56.379" height="4.487"/>
				<rect x="270.499" y="145.226" style="opacity:0.3;fill:#FFFFFF;" width="56.379" height="4.487"/>
			</g>
		</g>
		<g>
			<path style="fill:#407BFF;" d="M386.902,75.845h-105.09c-11.842,0-21.477,9.635-21.477,21.477v93.611
				c0,11.842,9.635,21.477,21.477,21.477h105.09c11.842,0,21.477-9.635,21.477-21.477V97.322
				C408.379,85.48,398.744,75.845,386.902,75.845z M404.154,190.933c0,9.528-7.724,17.252-17.252,17.252h-105.09
				c-9.528,0-17.252-7.724-17.252-17.252V97.322c0-9.528,7.724-17.252,17.252-17.252h105.09c9.528,0,17.252,7.724,17.252,17.252
				V190.933z"/>
			<path style="opacity:0.4;fill:#FFFFFF;" d="M386.902,75.845h-105.09c-11.842,0-21.477,9.635-21.477,21.477v93.611
				c0,11.842,9.635,21.477,21.477,21.477h105.09c11.842,0,21.477-9.635,21.477-21.477V97.322
				C408.379,85.48,398.744,75.845,386.902,75.845z M404.154,190.933c0,9.528-7.724,17.252-17.252,17.252h-105.09
				c-9.528,0-17.252-7.724-17.252-17.252V97.322c0-9.528,7.724-17.252,17.252-17.252h105.09c9.528,0,17.252,7.724,17.252,17.252
				V190.933z"/>
		</g>
		<g>
			<path style="fill:#407BFF;" d="M373.996,117.299h-13.173c-1.407,0-2.548-1.141-2.548-2.548v-2.325
				c0-1.407,1.141-2.548,2.548-2.548h13.173c1.407,0,2.548,1.141,2.548,2.548v2.325
				C376.543,116.158,375.403,117.299,373.996,117.299z"/>
			<path style="fill:#407BFF;" d="M385.478,108.118h-13.173c-1.407,0-2.548-1.141-2.548-2.548v-2.325
				c0-1.407,1.141-2.548,2.548-2.548h13.173c1.407,0,2.548,1.141,2.548,2.548v2.325
				C388.026,106.978,386.885,108.118,385.478,108.118z"/>
			<path style="fill:#407BFF;" d="M381.353,126.479H368.18c-1.407,0-2.548-1.141-2.548-2.548v-2.325
				c0-1.407,1.141-2.548,2.548-2.548h13.173c1.407,0,2.548,1.141,2.548,2.548v2.325C383.9,125.339,382.76,126.479,381.353,126.479z"
				/>
			<path style="fill:#407BFF;" d="M394.612,117.299h-13.173c-1.407,0-2.548-1.141-2.548-2.548v-2.325
				c0-1.407,1.141-2.548,2.548-2.548h13.173c1.407,0,2.548,1.141,2.548,2.548v2.325C397.16,116.158,396.019,117.299,394.612,117.299
				z"/>
			<path style="opacity:0.7;fill:#FFFFFF;" d="M373.996,117.299h-13.173c-1.407,0-2.548-1.141-2.548-2.548v-2.325
				c0-1.407,1.141-2.548,2.548-2.548h13.173c1.407,0,2.548,1.141,2.548,2.548v2.325
				C376.543,116.158,375.403,117.299,373.996,117.299z"/>
			<path style="opacity:0.8;fill:#FFFFFF;" d="M385.478,108.118h-13.173c-1.407,0-2.548-1.141-2.548-2.548v-2.325
				c0-1.407,1.141-2.548,2.548-2.548h13.173c1.407,0,2.548,1.141,2.548,2.548v2.325
				C388.026,106.978,386.885,108.118,385.478,108.118z"/>
			<path style="opacity:0.8;fill:#FFFFFF;" d="M381.353,126.479H368.18c-1.407,0-2.548-1.141-2.548-2.548v-2.325
				c0-1.407,1.141-2.548,2.548-2.548h13.173c1.407,0,2.548,1.141,2.548,2.548v2.325C383.9,125.339,382.76,126.479,381.353,126.479z"
				/>
			<path style="opacity:0.7;fill:#FFFFFF;" d="M394.612,117.299h-13.173c-1.407,0-2.548-1.141-2.548-2.548v-2.325
				c0-1.407,1.141-2.548,2.548-2.548h13.173c1.407,0,2.548,1.141,2.548,2.548v2.325C397.16,116.158,396.019,117.299,394.612,117.299
				z"/>
		</g>
		<g>
			<path style="fill:#407BFF;" d="M341.292,99.818h13.173c1.407,0,2.548-1.141,2.548-2.548v-2.325c0-1.407-1.141-2.548-2.548-2.548
				h-13.173c-1.407,0-2.548,1.141-2.548,2.548v2.325C338.745,98.677,339.885,99.818,341.292,99.818z"/>
			<path style="fill:#407BFF;" d="M333.935,108.998h13.173c1.407,0,2.548-1.141,2.548-2.548v-2.325c0-1.407-1.141-2.548-2.548-2.548
				h-13.173c-1.407,0-2.548,1.141-2.548,2.548v2.325C331.388,107.858,332.528,108.998,333.935,108.998z"/>
			<path style="fill:#407BFF;" d="M320.676,99.818h13.173c1.407,0,2.548-1.141,2.548-2.548v-2.325c0-1.407-1.141-2.548-2.548-2.548
				h-13.173c-1.407,0-2.548,1.141-2.548,2.548v2.325C318.128,98.677,319.269,99.818,320.676,99.818z"/>
			<path style="opacity:0.8;fill:#FFFFFF;" d="M341.292,99.818h13.173c1.407,0,2.548-1.141,2.548-2.548v-2.325
				c0-1.407-1.141-2.548-2.548-2.548h-13.173c-1.407,0-2.548,1.141-2.548,2.548v2.325C338.745,98.677,339.885,99.818,341.292,99.818
				z"/>
			<path style="opacity:0.8;fill:#FFFFFF;" d="M333.935,108.998h13.173c1.407,0,2.548-1.141,2.548-2.548v-2.325
				c0-1.407-1.141-2.548-2.548-2.548h-13.173c-1.407,0-2.548,1.141-2.548,2.548v2.325
				C331.388,107.858,332.528,108.998,333.935,108.998z"/>
			<path style="opacity:0.7;fill:#FFFFFF;" d="M320.676,99.818h13.173c1.407,0,2.548-1.141,2.548-2.548v-2.325
				c0-1.407-1.141-2.548-2.548-2.548h-13.173c-1.407,0-2.548,1.141-2.548,2.548v2.325C318.128,98.677,319.269,99.818,320.676,99.818
				z"/>
		</g>
	</g>
</g>
<g id="Character_1">
	<g>
		<g>
			<rect x="165.201" y="118.154" style="fill:#263238;" width="59.855" height="67.605"/>
			<g>
				<rect x="160.404" y="185.759" style="fill:#263238;" width="69.45" height="5.453"/>
			</g>
			<g style="opacity:0.4;">
				<rect x="160.404" y="185.759" style="fill:#FFFFFF;" width="69.45" height="5.453"/>
			</g>
			<rect x="165.201" y="118.154" style="opacity:0.6;fill:#FFFFFF;" width="59.855" height="67.605"/>
			<rect x="169.426" y="122.379" style="opacity:0.5;fill:#FFFFFF;" width="51.405" height="59.155"/>
			<g style="opacity:0.2;">
				<polygon style="fill:#FFFFFF;" points="169.426,122.379 169.426,181.534 169.793,181.534 183.925,122.379 				"/>
				<polygon style="fill:#FFFFFF;" points="213.519,122.379 210.874,122.379 196.742,181.534 199.387,181.534 				"/>
				<polygon style="fill:#FFFFFF;" points="207.309,122.379 196.219,122.379 182.087,181.534 193.178,181.534 				"/>
			</g>
		</g>
		<g>
			<path style="fill:#407BFF;" d="M130.613,172.665c-2.029,0.147-4.594-1.482-5.839-3.601c-0.391-0.665-0.59-0.996-0.994-1.655
				c-2.89-4.716-9.225-8.099-13.597-7.782c-0.439,0.032-0.658,0.048-1.096,0.079c-0.526,0.038-2.546,0.185-3.072,0.223
				c-0.438,0.032-0.658,0.048-1.096,0.08c-4.372,0.317-5.362,4.231-2.764,8.968c0.364,0.663,0.542,0.995,0.892,1.663
				c1.115,2.128,0.285,4.003-1.744,4.15c-3.504,0.254-4.976,3.487-3.624,7.312c4.444,15.747,5.666,29.033,3.961,43.418
				c3.075,2.839,7.172,4.588,11.687,4.588h35.503c1.373-18.019-1.214-33.036-8.374-51.107
				C138.673,175.207,134.116,172.411,130.613,172.665z"/>
			<path style="opacity:0.1;" d="M130.613,172.665c-2.029,0.147-4.594-1.482-5.839-3.601c-0.391-0.665-0.59-0.996-0.994-1.655
				c-2.89-4.716-9.225-8.099-13.597-7.782c-0.439,0.032-0.658,0.048-1.096,0.079c-0.526,0.038-2.546,0.185-3.072,0.223
				c-0.438,0.032-0.658,0.048-1.096,0.08c-4.372,0.317-5.362,4.231-2.764,8.968c0.364,0.663,0.542,0.995,0.892,1.663
				c1.115,2.128,0.285,4.003-1.744,4.15c-3.504,0.254-4.976,3.487-3.624,7.312c4.444,15.747,5.666,29.033,3.961,43.418
				c3.075,2.839,7.172,4.588,11.687,4.588h35.503c1.373-18.019-1.214-33.036-8.374-51.107
				C138.673,175.207,134.116,172.411,130.613,172.665z"/>
			<path style="opacity:0.2;" d="M130.613,172.665c-2.029,0.147-4.594-1.482-5.839-3.601c-0.391-0.665-0.59-0.996-0.994-1.655
				c-2.89-4.716-9.225-8.099-13.597-7.782c-0.438,0.032-0.658,0.048-1.096,0.079c-4.372,0.317-5.316,4.227-2.66,8.961
				c0.371,0.662,0.554,0.994,0.912,1.661c1.141,2.126,0.331,4-1.698,4.147c-3.504,0.254-4.94,3.484-3.544,7.306
				c4.972,16.917,6.194,31.009,4.042,46.744c2.19,1.006,4.619,1.583,7.187,1.583h35.503c1.373-18.019-1.214-33.036-8.374-51.107
				C138.673,175.207,134.116,172.411,130.613,172.665z"/>
		</g>
		<g>
			<g>
				<g>
					<path style="fill:#B55B52;" d="M154.629,190.511c0,0-1.551,20.493,3.591,20.281c5.142-0.212,15.262-0.138,15.262-0.138
						l8.356-3.736c0.446-0.199,0.969-0.104,1.315,0.24l3.786,3.754c0.76,0.754,0.207,2.05-0.863,2.022l-2.314-0.06
						c0,0-4.04,2.523-10.189,1.951c1.193-0.367-21.149,3.785-23.445,0.616c-3.142-4.336-4.512-22.446-4.512-22.446L154.629,190.511z
						"/>
					<path style="opacity:0.1;" d="M154.629,190.511c0,0-1.551,20.493,3.591,20.281c5.142-0.212,15.262-0.138,15.262-0.138
						l8.356-3.736c0.446-0.199,0.969-0.104,1.315,0.24l3.786,3.754c0.76,0.754,0.207,2.05-0.863,2.022l-2.314-0.06
						c0,0-4.04,2.523-10.189,1.951c1.193-0.367-21.149,3.785-23.445,0.616c-3.142-4.336-4.512-22.446-4.512-22.446L154.629,190.511z
						"/>
				</g>
				<path style="fill:#263238;" d="M149.787,177.753c3.484-0.106,7.414,4.414,5.68,16.429l-9.577,1.848
					C145.89,196.031,142.779,177.966,149.787,177.753z"/>
				<path style="opacity:0.2;" d="M149.787,177.753c3.484-0.106,7.414,4.414,5.68,16.429l-9.577,1.848
					C145.89,196.031,142.779,177.966,149.787,177.753z"/>
			</g>
			<path style="fill:#263238;" d="M114.422,177.949c-5.239,6.752-4.38,42.257-4.045,51.89c0.96,0.166,1.942,0.27,2.949,0.27h30.448
				c2.6-34.128,13.651-44.231,9.601-50.668C149.515,173.307,120.496,170.121,114.422,177.949z"/>
			<g>
				<path style="fill:#B55B52;" d="M139.697,182.167c0,0,7.589-4.715,4.509-7.278c-3.639-0.888-7.914-1.444-12.112-1.549
					C130.853,174.158,131.752,176.438,139.697,182.167z"/>
				<path style="fill:#B55B52;" d="M143.945,170.387l-6.699-7.277c-0.637,5.581-3.61,10.156-4.207,10.342l0.733,2.555
					c8.118,9.129,9.993,0.365,9.993,0.365C141.789,174.717,143.945,170.387,143.945,170.387z"/>
				<path style="opacity:0.2;fill:#263238;" d="M139.93,166.026l-3.123-0.312c0,0,0.137,9.36,6.541,10.162
					c-1.188-1.889,0.598-5.489,0.598-5.489L139.93,166.026z"/>
				<path style="fill:#B55B52;" d="M138.159,155.108c-1.449,6.615-2.638,10.4-0.346,14.773c2.206,4.329,7.503,6.051,11.833,3.845
					c1.593-0.812,2.901-2.09,3.75-3.663c3.044-5.379,4.908-15.292-0.637-19.898c-3.694-3.243-9.318-2.878-12.561,0.817
					C139.168,152.154,138.465,153.577,138.159,155.108z"/>
				<path style="fill:#263238;" d="M147.374,160.069c-0.155,0.524,0.007,1.039,0.358,1.121c0.35,0.082,0.736-0.228,0.891-0.753
					c0.155-0.525-0.004-1.047-0.366-1.125C147.895,159.235,147.521,159.541,147.374,160.069z"/>
				<path style="fill:#263238;" d="M153.276,161.975c-0.155,0.525,0,1.036,0.358,1.121c0.358,0.086,0.736-0.228,0.895-0.76
					c0.159-0.532-0.007-1.039-0.366-1.125C153.805,161.126,153.428,161.439,153.276,161.975z"/>
				<path style="fill:#263238;" d="M146.097,157.549c-0.051-0.01-0.099-0.033-0.139-0.066c-0.108-0.138-0.084-0.337,0.054-0.446
					c0.004-0.003,0.007-0.006,0.011-0.008c0.816-0.644,1.9-0.839,2.89-0.52c0.164,0.062,0.246,0.245,0.184,0.409
					c-0.001,0.003-0.003,0.006-0.004,0.009c-0.062,0.164-0.245,0.246-0.409,0.184c-0.003-0.001-0.006-0.002-0.009-0.004
					c-0.771-0.241-1.61-0.093-2.252,0.398C146.332,157.583,146.204,157.6,146.097,157.549z"/>
				<path style="fill:#263238;" d="M156.395,160.738c-0.097-0.043-0.166-0.133-0.181-0.238c-0.116-0.829-0.611-1.558-1.34-1.97
					c-0.148-0.103-0.184-0.306-0.081-0.454c0.08-0.115,0.224-0.166,0.358-0.127l0,0c0.915,0.502,1.54,1.406,1.686,2.439
					c0.031,0.173-0.084,0.337-0.256,0.368c-0.002,0-0.004,0.001-0.005,0.001C156.515,160.771,156.452,160.764,156.395,160.738z"/>
				<path style="fill:#263238;" d="M146.907,168.402c0.294,0.086,0.594,0.147,0.899,0.181c0.098,0.017,0.19-0.049,0.207-0.147
					c0-0.002,0.001-0.004,0.001-0.006c0.006-0.101-0.067-0.189-0.168-0.201c-1.557-0.166-2.942-1.061-3.734-2.412
					c-0.044-0.091-0.153-0.128-0.244-0.085c-0.091,0.044-0.129,0.153-0.085,0.244C144.455,167.173,145.581,168.048,146.907,168.402z
					"/>
				<path style="fill:#A02724;" d="M151.223,161.631c0.164,1.82,0.568,3.61,1.201,5.325c-1.167,0.574-2.637-0.309-2.637-0.309
					L151.223,161.631z"/>
				<path style="fill:#263238;" d="M138.29,158.797c0,0,6.425,0.066,4.576-3.631c0,0,8.912,1.716,7.394-1.65
					c0,0,6.035,4.746,4.475,0.264c0,0,4.107,3.499,4.239,1.254c0.132-2.245-2.129-3.682-2.129-3.682s5.015-4.074-2.255-4.066
					c0,0,1.725-6.115-6.576-1.23c0,0,1.103-6.338-5.082,0c0,0-8.386,0.066-6.405,2.839c0,0-5.28,1.716-1.979,3.565
					c0,0-4.019,3.635-1.085,5.118c0,0-3.8,5.226,1.746,4.576c0,0-1.98,4.829,0.462,3.839
					C138.113,165.003,138.29,158.797,138.29,158.797z"/>
				<path style="fill:#B55B52;" d="M134.16,159.802c0.028,1.513,0.627,2.96,1.677,4.051c1.387,1.413,2.979,0.349,3.336-1.514
					c0.322-1.69-0.015-4.445-1.769-5.15C135.649,156.484,134.141,157.931,134.16,159.802z"/>
			</g>
			<path style="opacity:0.3;" d="M144.953,219.361c0.297-2.037,0.622-3.964,0.969-5.792l-3.188-0.638L125.041,202.5l-6.338-14.656
				l-2.641-5.677l-2.48,1.32c0,0-0.029,29.344,12.383,34.675C131.189,220.406,137.81,219.702,144.953,219.361z"/>
			<path style="fill:#B55B52;" d="M124.66,189.429c0,0,3.632,18.114,14.946,20.148c11.314,2.034,13.036,1.997,13.036,1.997
				l9.171-2.992c0.551-0.18,1.155,0.005,1.51,0.462l2.316,2.974c0.678,0.871,0.105,2.145-0.996,2.216l-3.922,0.253
				c0,0-2.849,2.662-7.712,2.072c0,0-18.346,2.01-24.742-1.667c-6.396-3.677-11.458-18.717-11.458-18.717L124.66,189.429z"/>
			<path style="fill:#263238;" d="M116.547,201.18c0,0-6.419-20.563-0.365-23.833c6.054-3.27,10.047,11.158,11.544,16.615
				L116.547,201.18z"/>
		</g>
		<g>
			<g>
				<polygon style="fill:#407BFF;" points="176.883,214.55 154.735,215.607 154.735,218.752 176.883,218.752 191.142,218.752 
					191.142,214.55 				"/>
				<polygon style="opacity:0.3;fill:#FFFFFF;" points="176.883,218.752 154.735,218.752 154.735,215.607 176.883,214.55 				"/>
				<rect x="176.883" y="214.55" style="opacity:0.6;fill:#FFFFFF;" width="14.26" height="4.202"/>
			</g>
			<g>
				<polygon style="fill:#407BFF;" points="225.562,207.923 178.777,207.923 183.499,169.462 230.285,169.462 				"/>
				<polygon style="opacity:0.3;fill:#FFFFFF;" points="225.562,207.923 178.777,207.923 183.499,169.462 230.285,169.462 				"/>
				<polygon style="fill:#407BFF;" points="186.196,169.462 181.473,207.923 225.562,207.923 230.285,169.462 				"/>
				<polygon style="opacity:0.6;fill:#FFFFFF;" points="186.196,169.462 181.473,207.923 225.562,207.923 230.285,169.462 				"/>
				<polygon style="fill:#407BFF;" points="210.334,218.637 200.382,218.637 199.382,202.766 207.437,202.766 				"/>
				<polygon style="opacity:0.3;fill:#FFFFFF;" points="210.334,218.637 200.382,218.637 199.382,202.766 207.437,202.766 				"/>
				<polygon style="fill:#407BFF;" points="212.107,218.637 202.155,218.637 201.155,202.766 209.21,202.766 				"/>
				<polygon style="opacity:0.5;fill:#FFFFFF;" points="212.107,218.637 202.155,218.637 201.155,202.766 209.21,202.766 				"/>
				<polygon style="fill:#407BFF;" points="205.21,215.872 203.604,215.872 189.853,215.872 189.853,218.752 203.604,218.752 
					205.21,218.752 218.961,218.752 218.961,215.872 				"/>
				<polygon style="opacity:0.3;fill:#FFFFFF;" points="205.21,215.872 203.604,215.872 189.853,215.872 189.853,218.752 
					203.604,218.752 205.21,218.752 218.961,218.752 218.961,215.872 				"/>
				<rect x="203.604" y="215.872" style="fill:#407BFF;" width="15.357" height="2.88"/>
				<rect x="203.604" y="215.872" style="opacity:0.6;fill:#FFFFFF;" width="15.357" height="2.88"/>
			</g>
		</g>
		<g>
			<path style="fill:#263238;" d="M145.703,223.237v6.872h72.714c5.626,0,10.607-2.705,13.756-6.872H145.703z"/>
			<path style="opacity:0.3;fill:#FFFFFF;" d="M145.703,223.237v6.872h72.714c5.626,0,10.607-2.705,13.756-6.872H145.703z"/>
			<path style="fill:#263238;" d="M234.613,218.752h-93.242v4.485h90.801C233.196,221.883,234.021,220.376,234.613,218.752z"/>
			<path style="opacity:0.5;fill:#FFFFFF;" d="M234.613,218.752h-93.242v4.485h90.801
				C233.196,221.883,234.021,220.376,234.613,218.752z"/>
		</g>
		<g>
			<path style="fill:#407BFF;" d="M218.417,97.769h-105.09c-11.842,0-21.477,9.634-21.477,21.477v93.611
				c0,11.842,9.635,21.477,21.477,21.477h105.09c11.842,0,21.477-9.635,21.477-21.477v-93.611
				C239.894,107.403,230.259,97.769,218.417,97.769z M235.668,212.857c0,9.528-7.724,17.252-17.252,17.252H113.326
				c-9.528,0-17.252-7.724-17.252-17.252v-93.611c0-9.528,7.724-17.252,17.252-17.252h105.091c9.528,0,17.252,7.724,17.252,17.252
				V212.857z"/>
			<path style="opacity:0.4;fill:#FFFFFF;" d="M218.417,97.769h-105.09c-11.842,0-21.477,9.634-21.477,21.477v93.611
				c0,11.842,9.635,21.477,21.477,21.477h105.09c11.842,0,21.477-9.635,21.477-21.477v-93.611
				C239.894,107.403,230.259,97.769,218.417,97.769z M235.668,212.857c0,9.528-7.724,17.252-17.252,17.252H113.326
				c-9.528,0-17.252-7.724-17.252-17.252v-93.611c0-9.528,7.724-17.252,17.252-17.252h105.091c9.528,0,17.252,7.724,17.252,17.252
				V212.857z"/>
		</g>
	</g>
</g>
<g id="Clock">
	<g>
		
			<ellipse transform="matrix(0.7071 -0.7071 0.7071 0.7071 -17.8649 214.807)" style="fill:#407BFF;" cx="250.363" cy="128.968" rx="27.492" ry="27.492"/>
		
			<ellipse transform="matrix(0.7071 -0.7071 0.7071 0.7071 -17.8649 214.807)" style="opacity:0.3;" cx="250.363" cy="128.968" rx="27.492" ry="27.492"/>
		
			<ellipse transform="matrix(0.2298 -0.9732 0.9732 0.2298 69.1751 341.5367)" style="fill:#407BFF;" cx="250.363" cy="127.065" rx="27.492" ry="27.492"/>
		
			<ellipse transform="matrix(0.2298 -0.9732 0.9732 0.2298 69.1751 341.5367)" style="opacity:0.9;fill:#FFFFFF;" cx="250.363" cy="127.065" rx="23.287" ry="23.287"/>
		<g>
			<path style="fill:#263238;" d="M249.411,110.676c0,5.157-0.174,10.344,0,15.497c0.056,1.647,0.823,2.109,2.016,3.302
				c1.818,1.818,3.635,3.635,5.452,5.452c0.867,0.867,2.213-0.478,1.346-1.346c-1.689-1.689-3.377-3.377-5.065-5.066
				c-0.648-0.648-1.585-1.322-2.091-2.091c0.638,0.969,0.245-0.13,0.245-0.951c0-4.933,0-9.866,0-14.799
				C251.314,109.451,249.411,109.449,249.411,110.676L249.411,110.676z"/>
		</g>
	</g>
</g>
<g id="Character_2_1_">
	<g>
		<g>
			<g>
				<path style="fill:#263238;" d="M293.925,408.733L293.925,408.733c-1.273,0-2.337-0.968-2.458-2.235l-0.785-8.242v-68.412h6.486
					v68.412l-0.785,8.242C296.262,407.766,295.198,408.733,293.925,408.733z"/>
				<path style="opacity:0.3;fill:#FFFFFF;" d="M293.925,408.733L293.925,408.733c-1.273,0-2.337-0.968-2.458-2.235l-0.785-8.242
					v-68.412h6.486v68.412l-0.785,8.242C296.262,407.766,295.198,408.733,293.925,408.733z"/>
				<rect x="290.683" y="337.566" style="opacity:0.1;" width="6.485" height="7.966"/>
			</g>
			<g>
				<path style="fill:#263238;" d="M299.468,399.404v-2.572c0-1.004-0.814-1.819-1.819-1.819h-7.447
					c-1.005,0-1.819,0.814-1.819,1.819v2.572l-18.31,5.033c-2.222,0.611-3.761,2.631-3.761,4.935l0,0h55.227l0,0
					c0-2.304-1.54-4.324-3.762-4.935L299.468,399.404z"/>
				<path style="opacity:0.2;fill:#FFFFFF;" d="M299.468,399.404v-2.572c0-1.004-0.814-1.819-1.819-1.819h-7.447
					c-1.005,0-1.819,0.814-1.819,1.819v2.572l-18.31,5.033c-2.222,0.611-3.761,2.631-3.761,4.935l0,0h55.227l0,0
					c0-2.304-1.54-4.324-3.762-4.935L299.468,399.404z"/>
				<path style="opacity:0.1;" d="M299.468,399.335v-2.503c0-0.087-0.014-0.171-0.026-0.255h-11.033
					c-0.012,0.084-0.026,0.168-0.026,0.255v2.503H299.468z"/>
			</g>
		</g>
		<path style="fill:#263238;" d="M323.317,263.03c-12.2,0.432-22.746,10.791-24.025,22.953l-4.553,43.323
			c-0.415,3.952,2.452,7.156,6.404,7.156h6.251h24.297h6.251c3.952,0,7.493-3.204,7.909-7.156l4.61-43.861
			c1.331-12.659-8.084-22.869-20.892-22.416H323.317z"/>
		<path style="opacity:0.2;fill:#FFFFFF;" d="M323.317,263.03c-12.2,0.432-22.746,10.791-24.025,22.953l-4.553,43.323
			c-0.415,3.952,2.452,7.156,6.404,7.156h6.251h24.297h6.251c3.952,0,7.493-3.204,7.909-7.156l4.61-43.861
			c1.331-12.659-8.084-22.869-20.892-22.416H323.317z"/>
		<path style="fill:#263238;" d="M344.209,285.445c1.331-12.659-8.084-22.869-20.892-22.416
			c-12.2,0.432-22.746,10.791-24.025,22.953l-4.553,43.323c-0.415,3.952,2.452,7.156,6.404,7.156h30.548
			c3.952,0,7.493-3.204,7.908-7.156L344.209,285.445z"/>
		<g>
			<path style="fill:#263238;" d="M242.687,329.491c7.337-2.029,14.877-3.145,22.437-3.351c7.792-0.212,36.956-0.032,43.882-0.035
				c8.431-0.004,16.861,1.123,25.04,3.385c5.142,1.422,3.557,9.469-1.087,9.562c-0.41,0.008-88.572-0.021-88.896-0.005
				C239.204,339.287,237.432,330.944,242.687,329.491z"/>
			<g>
				<path style="fill:#263238;" d="M331.659,338.881c-14.81-4.096-30.496-4.096-45.306,0c-5.602,1.549-7.992-7.84-2.387-9.39
					c16.358-4.524,33.723-4.524,50.081,0C339.642,331.038,337.27,340.433,331.659,338.881L331.659,338.881z"/>
			</g>
			<g style="opacity:0.2;">
				<path style="fill:#FFFFFF;" d="M331.659,338.881c-14.81-4.096-30.496-4.096-45.306,0c-5.602,1.549-7.992-7.84-2.387-9.39
					c16.358-4.524,33.723-4.524,50.081,0C339.642,331.038,337.27,340.433,331.659,338.881L331.659,338.881z"/>
			</g>
		</g>
	</g>
	<g>
		<polygon style="fill:#B97964;" points="231.579,361.441 225.343,379.65 220.104,378.153 224.345,358.947 		"/>
		<g>
			<path style="fill:#263238;" d="M220.197,376.754l6.441,1.943c0.281,0.073,0.473,0.331,0.463,0.62l-0.236,6.404
				c-0.017,0.568-0.491,1.015-1.059,0.998c-0.073-0.002-0.145-0.012-0.216-0.03c-2.67-0.747-5.016-1.517-8.356-2.384
				c-3.94-1.028-3.064-0.296-7.713-1.44c-2.801-0.692-2.483-3.998-1.258-3.845c5.594,0.733,7.582-0.755,10.178-2.148
				C218.99,376.62,219.616,376.577,220.197,376.754z"/>
		</g>
		<polygon style="opacity:0.1;" points="228.179,371.369 221.955,369.773 224.345,358.947 231.579,361.441 		"/>
		<g>
			<polygon style="fill:#407BFF;" points="232.701,366.305 230.955,369.672 220.977,366.305 220.977,362.439 			"/>
			<polygon style="opacity:0.3;fill:#FFFFFF;" points="232.701,366.305 230.955,369.672 220.977,366.305 220.977,362.439 			"/>
		</g>
		<g>
			<polygon style="fill:#B97964;" points="271.741,383.764 273.817,399.881 267.956,400.034 263.723,384.487 			"/>
			<g>
				<path style="fill:#263238;" d="M267.881,399.139l6.691,0.02c0.29,0.001,0.54,0.202,0.603,0.485l1.373,6.259
					c0.126,0.554-0.221,1.106-0.776,1.232c-0.071,0.016-0.144,0.025-0.217,0.026c-2.772-0.056-5.236-0.214-8.687-0.218
					c-4.072-0.009-3.04,0.48-7.828,0.536c-2.885,0.031-3.404-3.25-2.18-3.408c5.6-0.69,7.183-2.379,9.348-4.377
					C266.68,399.31,267.274,399.113,267.881,399.139z"/>
			</g>
			<polygon style="opacity:0.1;" points="266.178,393.505 263.723,384.487 271.741,383.764 272.941,393.081 			"/>
			<path style="fill:#407BFF;" d="M291.933,287.017h-9.469c0,0-2.494,6.452-2.993,13.187c-0.499,6.735,12.462,1.746,12.462,1.746
				l1.132-9.229L291.933,287.017z"/>
			<path style="opacity:0.1;" d="M291.933,287.017h-9.469c0,0-2.494,6.452-2.993,13.187c-0.499,6.735,12.462,1.746,12.462,1.746
				l1.132-9.229L291.933,287.017z"/>
			<path style="opacity:0.1;" d="M286.429,287.017c2.629,13.808-2.434,13.107-2.434,13.107l2.869,1.996l5.205-1.277l0.996-8.122
				l-1.132-5.704H286.429z"/>
			<path style="fill:#407BFF;" d="M310.817,286.152c0,0,9.645,16.13,7.982,29.6c-1.663,13.47-14.123,20.594-62.015-2.354
				c0,0-9.823,10.17-26.12,53.738l-8.314-2.495c0,0,9.395-50.362,17.793-64.688c8.481-14.467,45.731,2.494,48.558-0.332
				c2.517-2.517,0.333-12.472,0.333-12.472L310.817,286.152z"/>
			<path style="opacity:0.2;" d="M251.318,317.918l-2.619-2.025c0,0-9.232,4.997-4.637,19.226l0,0.001
				c3.337-6.965,6.078-11.874,8.151-15.238L251.318,317.918z"/>
			<path style="fill:#407BFF;" d="M291.32,326.644c-8.703-2.084-19.973-6.268-34.536-13.246c0,0-11.237,0.151-11.985,8.507
				c-0.748,8.356,18.957,66.145,18.957,66.145l9.105-0.792c0,0-5.363-57.62-6.61-60.614H291.32z"/>
			<path style="opacity:0.1;" d="M291.32,326.644c-8.703-2.084-19.973-6.268-34.536-13.246c0,0-11.237,0.151-11.985,8.507
				c-0.748,8.356,18.957,66.145,18.957,66.145l9.105-0.792c0,0-5.363-57.62-6.61-60.614H291.32z"/>
			<path style="opacity:0.1;" d="M256.784,313.398c0,0-1.717,0.025-3.851,0.552c2.058,1.825,9.317,7.861,20.31,12.694h18.078
				C282.617,324.56,271.347,320.376,256.784,313.398z"/>
			<g>
				<polygon style="fill:#407BFF;" points="273.953,385.764 274.198,389.503 263.6,390.336 262.093,386.775 				"/>
				<polygon style="opacity:0.3;fill:#FFFFFF;" points="273.953,385.764 274.198,389.503 263.6,390.336 262.093,386.775 				"/>
			</g>
			<g>
				<path style="fill:#B97964;" d="M269.21,270.04l-10.699,6.008l-7.159-0.347c-0.643-0.031-1.253,0.284-1.6,0.826l-2.049,3.204
					c-0.284,0.444-0.359,0.99-0.204,1.494l0.049,0.158c0.278,0.909,1.217,1.444,2.141,1.22l3.124-0.757l6.207-1.186l15.192-6.627
					L269.21,270.04z"/>
				<path style="fill:#263238;" d="M267.105,270.376c0,0,3.812,1.124,4.677,5.672c0,0,7.8-2.711,9.16-7.066
					c1.359-4.355,4.985-25.886-0.886-25.922C274.185,243.025,277.372,268.819,267.105,270.376z"/>
				<path style="opacity:0.6;fill:#FFFFFF;" d="M267.105,270.376c0,0,3.812,1.124,4.677,5.672c0,0,7.8-2.711,9.16-7.066
					c1.359-4.355,4.985-25.886-0.886-25.922C274.185,243.025,277.372,268.819,267.105,270.376z"/>
				<path style="fill:#263238;" d="M265.118,270.714c0,0,2.8,2.518,4.561,6.827l4.121-2.035c0,0-1.657-4.69-5.02-6.582
					L265.118,270.714z"/>
				<path style="opacity:0.7;fill:#FFFFFF;" d="M265.118,270.714c0,0,2.8,2.518,4.561,6.827l4.121-2.035c0,0-1.657-4.69-5.02-6.582
					L265.118,270.714z"/>
			</g>
			<path style="fill:#263238;" d="M281.676,288.045c0,0,14.796,1.335,30.472-0.895c0,0-3.445-11.515-0.963-25.488
				s15.628-22.265-17.007-21.695c-4.724,0.083-18.724-0.547-17.119,9.422C278.774,260.037,281.676,288.045,281.676,288.045z"/>
			<path style="opacity:0.5;fill:#FFFFFF;" d="M281.676,288.045c0,0,14.796,1.335,30.472-0.895c0,0-3.445-11.515-0.963-25.488
				s15.628-22.265-17.007-21.695c-4.724,0.083-18.724-0.547-17.119,9.422C278.774,260.037,281.676,288.045,281.676,288.045z"/>
			<path style="fill:#B97964;" d="M301.129,271.705l-15.232,4.5l-6.513-1.141c-0.688-0.12-1.384,0.158-1.8,0.719l-2.193,2.96
				c-0.322,0.435-0.437,0.989-0.314,1.516l0.022,0.097c0.221,0.95,1.145,1.564,2.107,1.4l3.124-0.534l6.274-0.758l19.239-4.43
				L301.129,271.705z"/>
			<path style="fill:#263238;" d="M298.881,271.452c0,0,3.788,1.424,4.339,6.02c0,0,8.033-1.768,9.687-6.02
				c1.655-4.252,6.891-28.04,1.036-28.478C308.088,242.536,309.23,270.602,298.881,271.452z"/>
			<path style="opacity:0.6;fill:#FFFFFF;" d="M298.881,271.452c0,0,3.788,1.424,4.339,6.02c0,0,8.033-1.768,9.687-6.02
				c1.655-4.252,6.891-28.04,1.036-28.478C308.088,242.536,309.23,270.602,298.881,271.452z"/>
			<path style="fill:#263238;" d="M296.613,271.842c0,0,3.29,3.048,4.516,6.825l4.206-1.195c0,0-1.719-5.046-4.945-7.165
				L296.613,271.842z"/>
			<path style="opacity:0.7;fill:#FFFFFF;" d="M296.613,271.842c0,0,3.29,3.048,4.516,6.825l4.206-1.195
				c0,0-1.719-5.046-4.945-7.165L296.613,271.842z"/>
			<g>
				<path style="fill:#263238;" d="M300.447,210.837c0,0-4.558-9.111,2.431-7.916c6.986,1.195,2.85,19.323,9.284,21.796
					C312.163,224.716,304.727,226.566,300.447,210.837z"/>
				<path style="opacity:0.6;" d="M299.135,207.005c0.37,1.944,1.312,3.831,1.312,3.831c1.169,4.299,2.575,7.278,4,9.347
					c1.049-3.316,1.471-8.725-1.632-11.828C301.617,207.158,300.372,207.483,299.135,207.005z"/>
				<path style="fill:#407BFF;" d="M298.006,208.899c0,0,2.288-2.577,4.251,0.732c1.962,3.309-1.275,4.099-1.275,4.099
					L298.006,208.899z"/>
				<path style="fill:#263238;" d="M299.64,226.188c0,0,1.032,3.737,3.698,1.174C306.004,224.799,301.182,227.485,299.64,226.188z"
					/>
				<path style="fill:#263238;" d="M294.169,239.643c0,0-6.534-2.254-9.32,3.299l2.583,1.018l-1.417,1.74l5.331,3.867l9.105-3.118
					l-0.502-1.287l4.384-1.195C304.332,243.968,305.477,237.574,294.169,239.643z"/>
				<path style="opacity:0.7;fill:#FFFFFF;" d="M294.169,239.643c0,0-6.534-2.254-9.32,3.299l2.583,1.018l-1.417,1.74l5.331,3.867
					l9.105-3.118l-0.502-1.287l4.384-1.195C304.332,243.968,305.477,237.574,294.169,239.643z"/>
				<path style="fill:#B97964;" d="M294.362,240.151c0,0-10.889-2.39-3.238,8.457C291.123,248.608,312.898,239.927,294.362,240.151z
					"/>
				<path style="fill:#B97964;" d="M298.687,227.656l-7.404,7.275c0.658,3.168-0.265,4.807-1.278,5.655v2.357
					c0.848,0.268,2.069,0.439,3.855,0.344c5.368-0.287,7.122-0.856,7.122-0.856C297.754,239.849,298.214,231.986,298.687,227.656z"
					/>
				<path style="opacity:0.1;" d="M291.349,238.298c0.199-0.869,0.225-1.964-0.067-3.367l6.606-6.491l0.649,0.752
					C298.537,229.193,297.208,237.462,291.349,238.298z"/>
				<path style="fill:#B97964;" d="M299.305,218.026c0.541,7.132,0.926,10.138-2.143,14.258c-4.617,6.202-13.491,5.31-16.156-1.514
					c-2.398-6.143-2.883-16.765,3.645-20.536c4.651-2.718,10.624-1.152,13.342,3.499
					C298.758,215.042,299.207,216.512,299.305,218.026z"/>
				<path style="fill:#A24E3F;" d="M284.753,225.236c-0.329,1.385-0.848,2.718-1.542,3.961c0.65,0.345,1.42,0.385,2.102,0.109
					L284.753,225.236z"/>
				<path style="fill:#2E353A;" d="M290.148,220.371c0.046-0.018,0.088-0.046,0.121-0.083c0.101-0.12,0.085-0.298-0.034-0.399
					c-0.001-0.001-0.003-0.002-0.004-0.004c-0.81-0.714-1.917-0.988-2.967-0.735c-0.147,0.05-0.228,0.206-0.186,0.355
					c0.046,0.147,0.2,0.23,0.348,0.188c0.87-0.195,1.781,0.04,2.448,0.631C289.951,220.387,290.055,220.405,290.148,220.371z"/>
				<path style="fill:#2E353A;" d="M279.61,221.353c0.046-0.018,0.088-0.047,0.121-0.083c0.573-0.678,1.436-1.039,2.321-0.974
					c0.154,0.025,0.3-0.079,0.326-0.233c0-0.001,0-0.003,0-0.004c0.02-0.156-0.089-0.3-0.244-0.324
					c-1.075-0.094-2.13,0.338-2.832,1.158c-0.108,0.113-0.105,0.292,0.008,0.401C279.389,221.371,279.507,221.394,279.61,221.353
					L279.61,221.353z"/>
				<g>
					<path style="fill:#2E353A;" d="M288.686,223.724c0.08,0.572-0.161,1.079-0.542,1.136c-0.38,0.056-0.743-0.369-0.819-0.951
						c-0.075-0.582,0.161-1.08,0.534-1.133C288.233,222.722,288.603,223.144,288.686,223.724z"/>
					<path style="fill:#2E353A;" d="M282.177,224.624c0.08,0.572-0.161,1.08-0.534,1.133c-0.373,0.053-0.743-0.369-0.826-0.948
						c-0.083-0.579,0.161-1.08,0.534-1.133S282.102,224.042,282.177,224.624z"/>
					<path style="fill:#2E353A;" d="M281.521,223.684l-1.436-0.205C280.085,223.48,280.946,224.457,281.521,223.684z"/>
					<path style="fill:#2E353A;" d="M288.029,222.784l-1.436-0.205C286.594,222.579,287.454,223.557,288.029,222.784z"/>
				</g>
				<path style="fill:#263238;" d="M289.138,229.561c0.116-0.203,0.215-0.415,0.294-0.635c0.03-0.069-0.003-0.15-0.073-0.179
					c-0.001-0.001-0.003-0.001-0.004-0.002c-0.074-0.022-0.152,0.016-0.179,0.089c-0.4,1.125-1.31,1.994-2.453,2.341
					c-0.075,0.017-0.123,0.091-0.106,0.166c0.017,0.075,0.091,0.122,0.166,0.106C287.792,231.162,288.641,230.481,289.138,229.561z"
					/>
				<path style="fill:#263238;" d="M299.64,226.188c0,0-3.902-2.124-4.147-8.007c-0.245-5.883-9.187-7.076-14.69-3.63
					c0,0-1.577-5.189,4.182-5.651c0,0,8.424-6.162,15.319,0.732C306.389,215.716,299.64,226.188,299.64,226.188z"/>
				<path style="fill:#B97964;" d="M301.75,223.386c-0.211,1.367-0.957,2.594-2.073,3.411c-1.488,1.07-2.859-0.106-2.973-1.84
					c-0.102-1.555,0.548-3.994,2.297-4.379c1.282-0.242,2.517,0.601,2.759,1.883C301.817,222.767,301.814,223.081,301.75,223.386z"
					/>
				<path style="fill:#263238;" d="M281.282,213.64c0,0-1.753,3.917-3.224,0S279.817,214.523,281.282,213.64z"/>
			</g>
		</g>
	</g>
</g>
<g id="Device">
	<g>
		<path style="fill:#407BFF;" d="M285.781,281.012h-51.09c-0.829,0-1.501,0.672-1.501,1.501s0.672,1.501,1.501,1.501h51.09
			c0.829,0,1.501-0.672,1.501-1.501S286.61,281.012,285.781,281.012z"/>
		<path style="opacity:0.3;fill:#FFFFFF;" d="M285.781,281.012h-51.09c-0.829,0-1.501,0.672-1.501,1.501s0.672,1.501,1.501,1.501
			h51.09c0.829,0,1.501-0.672,1.501-1.501S286.61,281.012,285.781,281.012z"/>
		<path style="opacity:0.2;fill:#FFFFFF;" d="M256.707,284.014c-0.829,0-1.501-0.672-1.501-1.501s0.672-1.501,1.501-1.501h29.074
			c0.829,0,1.501,0.672,1.501,1.501s-0.672,1.501-1.501,1.501H256.707z"/>
		<path style="fill:#407BFF;" d="M235.507,283.096h18.787c0.49,0,0.833-0.483,0.671-0.946l-10.302-29.431
			c-0.284-0.811-1.049-1.354-1.908-1.354h-18.786c-0.49,0-0.833,0.483-0.671,0.946l10.302,29.431
			C233.882,282.554,234.648,283.096,235.507,283.096z"/>
		<path style="fill:#407BFF;" d="M234.6,283.096h18.787c0.49,0,0.833-0.483,0.671-0.946l-10.302-29.431
			c-0.284-0.811-1.049-1.354-1.908-1.354h-18.787c-0.49,0-0.833,0.483-0.671,0.946l10.302,29.431
			C232.976,282.554,233.741,283.096,234.6,283.096z"/>
		<path style="opacity:0.5;fill:#FFFFFF;" d="M234.6,283.096h18.787c0.49,0,0.833-0.483,0.671-0.946l-10.302-29.431
			c-0.284-0.811-1.049-1.354-1.908-1.354h-18.787c-0.49,0-0.833,0.483-0.671,0.946l10.302,29.431
			C232.976,282.554,233.741,283.096,234.6,283.096z"/>
		<path style="fill:#FFFFFF;" d="M236.7,267.231c0.24,1.128,1.02,2.042,1.742,2.042c0.722,0,1.114-0.914,0.874-2.042
			c-0.24-1.128-1.02-2.042-1.742-2.042C236.852,265.189,236.46,266.103,236.7,267.231z"/>
	</g>
</g>
<g id="Plant">
	<g>
		<g>
			<path style="fill:#407BFF;" d="M198.197,266.416c0,0-6.416-5.95-3.05-8.522c3.366-2.573-3.999-6.552-1.344-8.485
				c2.654-1.933-1.307-6.928,1.01-7.762c2.317-0.834-0.566-3.747,1.112-5.154c2.198-1.842,1.75,7.579,3.934,7.734
				c2.185,0.156-2.158,5.348,0.558,6.011c2.716,0.663-0.98,6.544,1.564,6.651C204.525,256.996,202.219,263.387,198.197,266.416z"/>
			<path style="opacity:0.5;fill:#FFFFFF;" d="M198.197,266.416c0,0-6.416-5.95-3.05-8.522c3.366-2.573-3.999-6.552-1.344-8.485
				c2.654-1.933-1.307-6.928,1.01-7.762c2.317-0.834-0.566-3.747,1.112-5.154c2.198-1.842,1.75,7.579,3.934,7.734
				c2.185,0.156-2.158,5.348,0.558,6.011c2.716,0.663-0.98,6.544,1.564,6.651C204.525,256.996,202.219,263.387,198.197,266.416z"/>
			<g style="opacity:0.2;">
				<path d="M196.065,238.907c0.647,3.9,1.18,7.823,1.609,11.752c0.525,4.818,1.64,10.913,0.125,15.647
					c-0.163,0.508,0.636,0.726,0.798,0.22c1.56-4.875,0.446-10.914-0.095-15.867c-0.437-4.002-0.979-8-1.638-11.972
					C196.776,238.163,195.978,238.385,196.065,238.907L196.065,238.907z"/>
			</g>
		</g>
		<g>
			<path style="fill:#407BFF;" d="M196.06,265.382c0,0-6.619-3.195-4.55-6.09c2.068-2.896-4.826-4.275-3.172-6.481
				c1.655-2.206-2.758-5.24-1.103-6.481c1.655-1.241-1.883-4.224-0.378-4.412c2.408-0.302,3.274,5.653,5.066,5.24
				c1.793-0.414-0.414,4.826,1.93,4.688c2.344-0.138,0.827,5.496,2.896,4.954C198.818,256.258,198.542,261.958,196.06,265.382z"/>
			<g style="opacity:0.2;">
				<path d="M188.236,244.728c3.17,6.503,6.38,13.555,7.425,20.764c0.076,0.525,0.873,0.302,0.798-0.22
					c-1.054-7.266-4.309-14.397-7.509-20.961C188.717,243.832,188.003,244.251,188.236,244.728L188.236,244.728z"/>
			</g>
		</g>
		<g>
			<path style="fill:#407BFF;" d="M201.622,265.382c0,0,6.619-3.195,4.55-6.09c-2.068-2.896,4.826-4.275,3.171-6.481
				s2.758-5.24,1.103-6.481c-1.655-1.241,1.38-2.362,0.378-4.412c-1.065-2.181-3.274,5.653-5.066,5.24
				c-1.793-0.414,0.414,4.826-1.93,4.688c-2.344-0.138-0.827,5.496-2.896,4.954C198.865,256.258,199.14,261.958,201.622,265.382z"/>
			<path style="opacity:0.2;fill:#FFFFFF;" d="M201.622,265.382c0,0,6.619-3.195,4.55-6.09c-2.068-2.896,4.826-4.275,3.171-6.481
				s2.758-5.24,1.103-6.481c-1.655-1.241,1.38-2.362,0.378-4.412c-1.065-2.181-3.274,5.653-5.066,5.24
				c-1.793-0.414,0.414,4.826-1.93,4.688c-2.344-0.138-0.827,5.496-2.896,4.954C198.865,256.258,199.14,261.958,201.622,265.382z"/>
			<g style="opacity:0.2;">
				<path d="M209.384,244.728c-3.17,6.503-6.38,13.555-7.425,20.764c-0.076,0.525-0.873,0.302-0.798-0.22
					c1.054-7.266,4.309-14.397,7.509-20.961C208.903,243.832,209.617,244.251,209.384,244.728L209.384,244.728z"/>
			</g>
		</g>
		<polygon style="fill:#407BFF;" points="205.117,284.186 193.35,284.186 191.144,264.368 207.323,264.368 		"/>
		<polygon style="opacity:0.3;fill:#FFFFFF;" points="205.117,284.186 193.35,284.186 191.144,264.368 207.323,264.368 		"/>
	</g>
</g>
<g id="Desk">
	<g>
		<g>
			<g>
				<path style="fill:#263238;" d="M235.08,408.733L235.08,408.733c-1.273,0-2.337-0.968-2.458-2.235l-0.785-8.242V285.322h6.485
					v112.934l-0.785,8.242C237.417,407.766,236.353,408.733,235.08,408.733z"/>
				<path style="opacity:0.3;fill:#FFFFFF;" d="M235.08,408.733L235.08,408.733c-1.273,0-2.337-0.968-2.458-2.235l-0.785-8.242
					V285.322h6.485v112.934l-0.785,8.242C237.417,407.766,236.353,408.733,235.08,408.733z"/>
				<rect x="231.837" y="286.425" style="opacity:0.1;" width="6.485" height="7.967"/>
			</g>
			<g>
				<path style="fill:#407BFF;" d="M240.622,399.404v-2.572c0-1.004-0.814-1.819-1.819-1.819h-7.447
					c-1.004,0-1.819,0.814-1.819,1.819v2.572l-18.31,5.033c-2.222,0.611-3.761,2.631-3.761,4.935l0,0h55.227l0,0
					c0-2.304-1.54-4.324-3.762-4.935L240.622,399.404z"/>
				<path style="opacity:0.1;" d="M240.622,399.335v-2.503c0-0.087-0.014-0.171-0.026-0.255h-11.033
					c-0.012,0.084-0.026,0.168-0.026,0.255v2.503H240.622z"/>
				<path style="opacity:0.2;" d="M240.622,399.404v-2.572c0-1.004-0.814-1.819-1.819-1.819h-7.447
					c-1.004,0-1.819,0.814-1.819,1.819v2.572l-18.31,5.033c-2.222,0.611-3.761,2.631-3.761,4.935l0,0h55.227l0,0
					c0-2.304-1.54-4.324-3.762-4.935L240.622,399.404z"/>
			</g>
		</g>
		<g>
			<rect x="164.785" y="287.807" style="fill:#263238;" width="140.591" height="3.793"/>
			<rect x="164.785" y="287.807" style="opacity:0.3;fill:#FFFFFF;" width="140.591" height="3.793"/>
			<rect x="235.273" y="287.807" style="opacity:0.2;" width="70.102" height="3.793"/>
			<rect x="156.304" y="284.014" style="fill:#407BFF;" width="157.553" height="3.793"/>
			<rect x="226.792" y="284.014" style="opacity:0.3;" width="87.064" height="3.793"/>
		</g>
	</g>
</g>
</svg>
